# xmcd CD database file
#
# Track frame offsets:
#	150
#	1030
#	13870
#	28322
#	44324
#	55241
#
# Disc length: 989 seconds
#
# Revision: 0
# Processed by: cddbd v1.5.2PL0 Copyright (c) Steve Scherf et al.
# Submitted via: CDex 1.51
#
DISCID=4203db06
DTITLE=Raelyn Nelson Band - Raelyn Nelson Band
DYEAR=2015
DGENRE=Country
TTITLE0=Intro
TTITLE1=Do You
TTITLE2=The Moon Song
TTITLE3=Careless
TTITLE4=He's All Mine
TTITLE5=Getta Room
EXTD=YEAR: 2015
EXTT0=
EXTT1=
EXTT2=
EXTT3=
EXTT4=
EXTT5=
PLAYORDER=
